<svg width="193" height="126" viewBox="0 0 193 126" fill="none" xmlns="http://www.w3.org/2000/svg">
<path d="M29.498 46.9765L11.3147 0.970588H33.0957L40.3885 25.0412L47.7784 0.970588H69.5594L51.3762 46.9765H29.498ZM79.4533 47.9471C76.5362 47.9471 73.846 47.4294 71.3826 46.3941C68.9193 45.3588 66.9422 43.7412 65.4512 41.5412C63.9602 39.2765 63.2148 36.3971 63.2148 32.9029C63.2148 27.9206 64.8354 24.1029 68.0766 21.45C71.3178 18.7324 76.2769 17.3735 82.9538 17.3735H94.136V16.6941C94.136 15.4 93.3905 14.4294 91.8996 13.7824C90.4734 13.0706 88.1397 12.7147 84.8985 12.7147C82.4352 12.7147 79.7774 12.9412 76.9251 13.3941C74.1377 13.7824 71.4799 14.3647 68.9517 15.1412V3.39706C71.415 2.36177 74.4942 1.55294 78.1892 0.970588C81.8842 0.323529 85.5144 0 89.0797 0C96.5993 0 102.628 1.55294 107.166 4.65882C111.703 7.7 113.972 12.5206 113.972 19.1206V46.9765H95.6918L94.8167 43.4824C93.1961 44.8412 91.1217 45.9412 88.5935 46.7824C86.1302 47.5588 83.0834 47.9471 79.4533 47.9471ZM87.0377 36.2029C88.6583 36.2029 90.0197 35.9441 91.1217 35.4265C92.2885 34.8441 93.2933 34.1324 94.136 33.2912V28.3412H87.5239C84.0882 28.3412 82.3704 29.6677 82.3704 32.3206C82.3704 34.9088 83.9262 36.2029 87.0377 36.2029ZM115.635 46.9765V0.970588H134.985L135.471 4.27059C137.351 3.04118 139.491 2.03824 141.889 1.26177C144.352 0.420591 147.075 0 150.057 0C152.909 0 155.145 0.420591 156.766 1.26177C158.387 2.03824 159.715 3.17059 160.753 4.65882C162.827 3.23529 165.161 2.10294 167.754 1.26177C170.347 0.420591 173.361 0 176.797 0C182.242 0 186.196 1.45588 188.66 4.36765C191.188 7.21471 192.452 11.5176 192.452 17.2765V46.9765H171.935V19.7029C171.935 18.2147 171.611 17.1471 170.963 16.5C170.379 15.7882 169.342 15.4324 167.851 15.4324C166.036 15.4324 164.545 16.0794 163.378 17.3735C163.443 18.2794 163.475 19.1529 163.475 19.9941C163.475 20.8353 163.475 21.7412 163.475 22.7118V46.9765H144.125V19.3147C144.125 17.9559 143.866 16.9853 143.348 16.4029C142.894 15.7559 142.019 15.4324 140.722 15.4324C139.815 15.4324 138.94 15.6912 138.097 16.2088C137.254 16.6618 136.476 17.2441 135.763 17.9559V46.9765H115.635Z" fill="#20FC8F"/>
<path d="M32.5743 97.9471C29.6572 97.9471 27.129 97.5912 24.9898 96.8794C22.8506 96.103 20.8735 95.0353 19.0584 93.6765L18.086 96.9765H0V31.5588H20.9059V52.2324C22.2672 51.5206 23.9526 50.9706 25.9622 50.5824C27.9717 50.1941 29.9165 50 31.7964 50C38.7974 50 44.2751 51.8118 48.2294 55.4353C52.1837 59.0588 54.1608 65.1088 54.1608 73.5853C54.1608 81.803 52.1837 87.9177 48.2294 91.9294C44.3399 95.9412 39.1215 97.9471 32.5743 97.9471ZM26.5456 83C28.62 83 30.1758 82.3206 31.213 80.9618C32.315 79.603 32.866 77.2412 32.866 73.8765C32.866 70.5118 32.315 68.2147 31.213 66.9853C30.1758 65.6912 28.62 65.0441 26.5456 65.0441C24.2768 65.0441 22.3968 65.6912 20.9059 66.9853V80.8647C21.6838 81.5118 22.5265 82.0294 23.434 82.4177C24.3416 82.8059 25.3788 83 26.5456 83ZM80.1413 97.9471C70.6769 97.9471 63.6434 95.9412 59.0409 91.9294C54.5032 87.853 52.2343 81.8677 52.2343 73.9735C52.2343 66.0794 54.5356 60.1265 59.1381 56.1147C63.7407 52.0382 70.7417 50 80.1413 50C89.6056 50 96.6391 52.0382 101.242 56.1147C105.909 60.1265 108.243 66.0794 108.243 73.9735C108.243 81.8677 105.941 87.853 101.339 91.9294C96.7363 95.9412 89.6705 97.9471 80.1413 97.9471ZM80.1413 82.903C82.4749 82.903 84.1928 82.2235 85.2948 80.8647C86.3968 79.5059 86.9478 77.2088 86.9478 73.9735C86.9478 70.7383 86.3968 68.4412 85.2948 67.0824C84.1928 65.7235 82.4749 65.0441 80.1413 65.0441C77.8724 65.0441 76.187 65.7235 75.085 67.0824C74.0478 68.4412 73.5292 70.7383 73.5292 73.9735C73.5292 77.2088 74.0478 79.5059 75.085 80.8647C76.187 82.2235 77.8724 82.903 80.1413 82.903ZM108.263 96.9765V50.9706H128.586L129.072 54.1735C130.822 53.1382 133.123 52.2 135.976 51.3588C138.828 50.5177 141.745 50.0647 144.726 50V65.4324C143.106 65.4971 141.291 65.6588 139.282 65.9177C137.337 66.1765 135.457 66.5 133.642 66.8882C131.892 67.2118 130.401 67.6324 129.169 68.15V96.9765H108.263ZM155.085 97.9471C152.168 97.9471 149.478 97.4294 147.014 96.3941C144.551 95.3588 142.575 93.7412 141.084 91.5412C139.593 89.2765 138.847 86.3971 138.847 82.903C138.847 77.9206 140.468 74.103 143.708 71.45C146.95 68.7324 151.909 67.3735 158.586 67.3735H169.768V66.6941C169.768 65.4 169.022 64.4294 167.531 63.7824C166.105 63.0706 163.772 62.7147 160.53 62.7147C158.067 62.7147 155.409 62.9412 152.557 63.3941C149.769 63.7824 147.112 64.3647 144.584 65.1412V53.3971C147.047 52.3618 150.126 51.553 153.821 50.9706C157.516 50.3235 161.146 50 164.712 50C172.231 50 178.26 51.553 182.798 54.6588C187.335 57.7 189.604 62.5206 189.604 69.1206V96.9765H171.324L170.448 93.4824C168.828 94.8412 166.753 95.9412 164.225 96.7824C161.762 97.5588 158.715 97.9471 155.085 97.9471ZM162.67 86.203C164.29 86.203 165.651 85.9441 166.753 85.4265C167.92 84.8441 168.925 84.1324 169.768 83.2912V78.3412H163.156C159.72 78.3412 158.002 79.6677 158.002 82.3206C158.002 84.9088 159.558 86.203 162.67 86.203Z" fill="#20FC8F"/>
<path d="M47.307 124.918V101.241H57.3253C59.9772 101.241 61.9293 101.951 63.1816 103.373C64.4339 104.796 65.0601 106.634 65.0601 108.888C65.0601 111.193 64.348 113.018 62.9238 114.366C61.5242 115.69 59.6089 116.351 57.178 116.351H50.3272V124.918H47.307ZM50.3272 113.998H56.6992C58.4671 113.998 59.7931 113.546 60.677 112.638C61.5856 111.707 62.0398 110.457 62.0398 108.888C62.0398 107.222 61.6101 105.935 60.7507 105.028C59.9158 104.097 58.6267 103.631 56.8833 103.631H50.3272V113.998ZM75.1164 125.285C71.9979 125.285 69.6652 124.538 68.1183 123.043C66.5714 121.547 65.7979 119.244 65.7979 116.131C65.7979 113.337 66.4609 111.143 67.7868 109.55C69.1372 107.932 71.2613 107.123 74.1588 107.123C75.8775 107.123 77.2895 107.443 78.3944 108.079C79.5239 108.693 80.3588 109.55 80.899 110.653C81.4637 111.731 81.7462 112.957 81.7462 114.329V117.601H68.8181C68.9162 118.925 69.1987 119.966 69.6652 120.726C70.1563 121.487 70.8807 122.038 71.8383 122.381C72.8204 122.7 74.1095 122.859 75.7057 122.859C77.4981 122.859 79.1433 122.553 80.6412 121.94V124.293C79.88 124.612 79.0206 124.856 78.063 125.028C77.1298 125.2 76.1477 125.285 75.1164 125.285ZM68.8181 115.432H79.0574V113.998C79.0574 112.576 78.6767 111.487 77.9156 110.726C77.179 109.943 75.9512 109.55 74.2324 109.55C72.1452 109.55 70.721 110.04 69.9599 111.021C69.1987 112.001 68.8181 113.472 68.8181 115.432ZM83.9636 124.918V107.491H86.6892L86.8733 109.476C87.7081 108.79 88.6781 108.226 89.7831 107.785C90.9125 107.344 92.2016 107.123 93.6504 107.123C95.8604 107.123 97.4686 107.638 98.4754 108.668C99.4821 109.697 99.9855 111.315 99.9855 113.521V124.918H96.9653V113.631C96.9653 112.112 96.6583 111.057 96.0445 110.469C95.4306 109.856 94.252 109.55 92.5086 109.55C91.4281 109.55 90.4092 109.746 89.4516 110.138C88.4939 110.531 87.6713 111.069 86.9838 111.756V124.918H83.9636ZM110.766 125.285C107.647 125.285 105.315 124.538 103.768 123.043C102.221 121.547 101.447 119.244 101.447 116.131C101.447 113.337 102.11 111.143 103.436 109.55C104.787 107.932 106.911 107.123 109.808 107.123C111.527 107.123 112.939 107.443 114.044 108.079C115.173 108.693 116.008 109.55 116.548 110.653C117.113 111.731 117.395 112.957 117.395 114.329V117.601H104.467C104.566 118.925 104.848 119.966 105.315 120.726C105.806 121.487 106.53 122.038 107.488 122.381C108.47 122.7 109.759 122.859 111.355 122.859C113.148 122.859 114.793 122.553 116.291 121.94V124.293C115.529 124.612 114.67 124.856 113.712 125.028C112.779 125.2 111.797 125.285 110.766 125.285ZM104.467 115.432H114.707V113.998C114.707 112.576 114.326 111.487 113.565 110.726C112.828 109.943 111.601 109.55 109.882 109.55C107.795 109.55 106.37 110.04 105.609 111.021C104.848 112.001 104.467 113.472 104.467 115.432ZM126.758 125.285C124.303 125.285 122.375 124.612 120.976 123.263C119.576 121.891 118.876 119.623 118.876 116.462C118.876 113.325 119.601 110.984 121.049 109.44C122.523 107.896 124.487 107.123 126.942 107.123C129.128 107.123 131.019 107.675 132.615 108.778V100.138H135.635V124.918H133.057L132.836 123.079C132.025 123.84 131.129 124.403 130.147 124.771C129.189 125.113 128.06 125.285 126.758 125.285ZM127.532 122.859C128.539 122.859 129.472 122.687 130.331 122.344C131.191 122.001 131.952 121.473 132.615 120.763V111.278C132.001 110.738 131.276 110.322 130.442 110.028C129.607 109.709 128.661 109.55 127.605 109.55C125.666 109.55 124.229 110.113 123.296 111.241C122.363 112.344 121.896 114.084 121.896 116.462C121.896 118.741 122.326 120.384 123.186 121.388C124.045 122.369 125.494 122.859 127.532 122.859ZM146.222 125.285C143.177 125.285 140.955 124.513 139.555 122.969C138.18 121.4 137.492 119.146 137.492 116.204C137.492 113.288 138.192 111.046 139.592 109.476C140.991 107.907 143.201 107.123 146.222 107.123C149.242 107.123 151.452 107.907 152.851 109.476C154.251 111.046 154.951 113.288 154.951 116.204C154.951 119.146 154.263 121.4 152.888 122.969C151.514 124.513 149.291 125.285 146.222 125.285ZM146.222 122.712C148.309 122.712 149.783 122.197 150.642 121.168C151.5 120.113 151.931 118.459 151.931 116.204C151.931 113.95 151.489 112.307 150.605 111.278C149.746 110.223 148.284 109.697 146.222 109.697C144.159 109.697 142.686 110.223 141.802 111.278C140.942 112.307 140.513 113.95 140.513 116.204C140.513 118.459 140.942 120.113 141.802 121.168C142.661 122.197 144.134 122.712 146.222 122.712Z" fill="black"/>
</svg>
